<svg xmlns="http://www.w3.org/2000/svg"
 xmlns:xlink="http://www.w3.org/1999/xlink"
 width="117px" height="26px"  viewBox="0 0 117 26">
<path fill-rule="evenodd"  fill="#171717"
 d="M12.049194,4.604004 C5.927246,3.24646 1.3317871,7.8726807 2.704712,14.021973 C3.2750244,16.575928 5.2753906,18.59082 7.810669,19.164795 C13.915649,20.54712 18.50769,15.916016 17.157959,9.748779 C16.597534,7.1884766 14.590942,5.1677246 12.049194,4.604004 ZM9.941772,17.063232 C7.050415,17.063599 5.031006,14.930542 5.0306396,11.875488 C5.0302734,8.820435 7.0491943,6.6867676 9.94043,6.6865234 C12.815674,6.686035 14.824097,8.819336 14.824463,11.874268 C14.824829,14.929199 12.817017,17.062866 9.941772,17.063232 ZM28.721802,4.3636475 C26.602417,4.3640137 24.858154,5.0809326 23.705322,6.4040527 C23.705322,6.4040527 23.705078,4.471924 23.705078,4.471924 C23.705078,4.471924 21.241333,4.47229 21.241333,4.47229 C21.241333,4.47229 21.243164,19.274536 21.243164,19.274536 C21.243164,19.274536 23.786987,19.27417 23.786987,19.27417 C23.786987,19.27417 23.78601,11.523315 23.78601,11.523315 C23.785645,8.526978 25.501343,6.738037 28.375244,6.737671 C30.923828,6.7373047 32.270752,8.187256 32.27112,10.930298 C32.27112,10.930298 32.272217,19.273193 32.272217,19.273193 C32.272217,19.273193 34.815674,19.272705 34.815674,19.272705 C34.815674,19.272705 34.814575,10.741699 34.814575,10.741699 C34.814087,6.7475586 32.5365,4.363159 28.721802,4.3636475 ZM46.709473,4.361328 C44.61206,4.3615723 42.83728,5.145508 41.61267,6.590332 C41.61267,6.590332 41.612305,4.4697266 41.612305,4.4697266 C41.612305,4.4697266 39.148804,4.4699707 39.148804,4.4699707 C39.148804,4.4699707 39.151367,24.490967 39.151367,24.490967 C39.151367,24.490967 41.69519,24.490479 41.69519,24.490479 C41.69519,24.490479 41.694336,17.251587 41.694336,17.251587 C42.92212,18.648315 44.670044,19.405884 46.711304,19.405762 C50.953003,19.405151 54.031128,16.235718 54.030518,11.869141 C54.03003,7.5183105 50.95105,4.360718 46.709473,4.361328 ZM46.577515,17.058472 C43.686523,17.05896 41.667114,14.925781 41.666748,11.870728 C41.66638,8.815796 43.68518,6.682129 46.576294,6.6816406 C49.421387,6.6813965 51.486694,8.863281 51.48706,11.869385 C51.48755,14.924438 49.468628,17.058228 46.577515,17.058472 ZM82.74426,4.477783 C82.74426,4.477783 82.74609,19.279907 82.74609,19.279907 C82.74609,19.279907 85.28992,19.279663 85.28992,19.279663 C85.28992,19.279663 85.287964,4.477417 85.287964,4.477417 C85.287964,4.477417 82.74426,4.477783 82.74426,4.477783 ZM97.582275,4.368164 C95.46289,4.368408 93.718506,5.0856934 92.56543,6.4089355 C92.56543,6.4089355 92.565186,4.4764404 92.565186,4.4764404 C92.565186,4.4764404 90.101685,4.4768066 90.101685,4.4768066 C90.101685,4.4768066 90.10364,19.279053 90.10364,19.279053 C90.10364,19.279053 92.64746,19.278687 92.64746,19.278687 C92.64746,19.278687 92.64636,11.527832 92.64636,11.527832 C92.645996,8.531494 94.36145,6.7424316 97.23535,6.7421875 C99.783936,6.741699 101.13086,8.19165 101.131226,10.934814 C101.131226,10.934814 101.132324,19.277588 101.132324,19.277588 C101.132324,19.277588 103.676025,19.277222 103.676025,19.277222 C103.676025,19.277222 103.67505,10.746216 103.67505,10.746216 C103.67444,6.752075 101.39697,4.367676 97.582275,4.368164 ZM114.55139,16.064453 C114.55139,16.064453 114.23291,16.353394 114.23291,16.353394 C113.78601,16.758667 113.11011,16.991333 112.378174,16.991333 C110.98816,16.991577 110.28308,16.236938 110.28296,14.748413 C110.28296,14.748413 110.28198,6.6710205 110.28198,6.6710205 C110.28198,6.6710205 114.53308,6.67041 114.53308,6.67041 C114.53308,6.67041 114.532715,4.411865 114.532715,4.411865 C114.532715,4.411865 110.28162,4.4123535 110.28162,4.4123535 C110.28162,4.4123535 110.28125,1.335083 110.28125,1.335083 C110.28125,1.335083 107.74707,1.3354492 107.74707,1.3354492 C107.74707,1.3354492 107.74744,4.4125977 107.74744,4.4125977 C107.74744,4.4125977 107.7478,6.6712646 107.7478,6.6712646 C107.7478,6.6712646 107.7489,14.855469 107.7489,14.855469 C107.749146,17.66504 109.35889,19.27649 112.16528,19.276123 C113.41907,19.276001 114.572754,18.88501 115.33069,18.20337 C115.33069,18.20337 115.51404,18.038452 115.51404,18.038452 C115.51404,18.038452 114.55139,16.064453 114.55139,16.064453 ZM68.04016,1.7459717 C62.21472,1.7468262 57.903076,5.9769287 57.90381,11.921387 C57.90454,17.865723 62.217407,22.132935 68.042725,22.132202 C73.86804,22.13147 78.14197,17.863281 78.141235,11.918701 C78.1405,5.974365 73.86536,1.7452393 68.04016,1.7459717 ZM72.6416,16.553833 C72.6416,16.553833 63.3562,16.555176 63.3562,16.555176 C62.638184,16.555176 62.056152,15.968872 62.05603,15.245728 C62.05603,15.245728 62.055176,8.682739 62.055176,8.682739 C62.055054,7.932617 62.65869,7.324463 63.40332,7.324463 C63.40332,7.324463 72.6405,7.323242 72.6405,7.323242 C73.38513,7.32312 73.98889,7.9311523 73.98889,8.681274 C73.98889,8.681274 73.98987,15.195435 73.98987,15.195435 C73.98987,15.945557 73.38635,16.55371 72.6416,16.553833 Z"/>
</svg>